<?xml version="1.0" encoding="utf-8"?>
<svg xmlns="http://www.w3.org/2000/svg" viewBox="-90 0 792 792" width="32" height="32">
  <path fill="#007098" d="M469.437,473.585c-64.858-43.042-145.732-65.736-156.815-158.822
    c-5.444-46.175,36.623-72.495,68.743-80.042c42.854-10.017,94.876-19.131,140.515-35.093
    c36.65-12.81,77.375-40.84,66.623-71.654c-19.497-55.808-90.991,24.019-127.945,48.047
    c-17.081,11.164-34.27,20.124-74.447,34.153c-33.088,11.539-64.045,29.623-97.025,9.4
    c-46.883-28.728,32.917-103.506-2.516-146.719c-8.504-10.34-30.339-20.751-42.961-22.935
    c-20.806-3.617-48.244,0.188-62.389,16.749c-24.61,28.925-24.449,45.057-14.825,73.749
    c7.726,23.043,46.059,41.646,51.287,66.596c6.832,32.604-36.488,58.395-55.495,58.181
    c-22.998,9.292-53.507-5.453-72.665-13.232c-25.344-10.313-55.656-21.646-72.173,2.399
    c-15.219,22.104-7.681,53.025,14.413,69.899c29.122,22.238,89.594,13.313,118.125-1.745
    c21.038-11.083,65.513-33.159,86.604-17c33.455,25.558,23.974,84.455,8.872,117.82
    c-27.108,59.908-34.699,77.375-70.481,132.834c-23.625,36.561-64.743,126.424-29.166,165.159
    c12.953,14.118,34.242,25.997,52.97,17.181c20.322-9.633,33.795-31.907,41.557-52.12
    c26.659-69.461,26.704-95.834,34.358-168.635c1.325-12.872,7.762-128.616,43.848-101.706
    c15.767,11.771,27.332,45.065,37.153,62.28c26.91,47.232,35.862,65.021,62.298,112.728
    c15.63,28.199,45.54,79.397,80.794,112.682c28.907,27.313,74.232,14.843,92.656-15.031
    C634.204,619.346,520.822,507.666,469.437,473.585
    M287.993,295.373c-3.33,1.727-6.079,0.555-7.709-0.233
    c-1.118-0.528-2.667-1.245-5.111-3.635c-1.952-1.897-9.212-10.743-9.472-22.237
    c-0.276-10.841,12.677-16.499,22.068-13.805C307.419,261.121,303.498,287.422,287.993,295.373"/>
</svg>
